<?xml version="1.0" encoding="utf-8"?>
<!-- Generator: Adobe Illustrator 20.0.0, SVG Export Plug-In . SVG Version: 6.00 Build 0)  -->
<svg version="1.2" baseProfile="tiny" id="Layer_1" xmlns="http://www.w3.org/2000/svg" xmlns:xlink="http://www.w3.org/1999/xlink"
	 x="0px" y="0px" viewBox="0 0 24 24" xml:space="preserve">
<path fill-rule="evenodd" fill="#FFFFFF" d="M12,2.7c-5.2,0-9.5,4.3-9.5,9.5c0,4.2,2.7,7.8,6.5,9c0.5,0.1,0.6-0.2,0.6-0.5
	c0-0.2,0-0.8,0-1.6c-2.6,0.6-3.2-1.3-3.2-1.3c-0.4-1.1-1.1-1.4-1.1-1.4c-0.9-0.6,0.1-0.6,0.1-0.6c1,0.1,1.5,1,1.5,1
	c0.8,1.5,2.2,1,2.8,0.8c0.1-0.6,0.3-1,0.6-1.3c-2.1-0.2-4.3-1.1-4.3-4.7c0-1,0.4-1.9,1-2.5C6.8,8.9,6.5,8,7,6.7c0,0,0.8-0.3,2.6,1
	c0.8-0.2,1.6-0.3,2.4-0.3c0.8,0,1.6,0.1,2.4,0.3c1.8-1.2,2.6-1,2.6-1c0.5,1.3,0.2,2.3,0.1,2.5c0.6,0.7,1,1.5,1,2.5
	c0,3.6-2.2,4.5-4.3,4.7c0.3,0.3,0.6,0.9,0.6,1.8c0,1.3,0,2.3,0,2.6c0,0.3,0.2,0.5,0.7,0.5c3.8-1.3,6.5-4.8,6.5-9
	C21.5,7,17.2,2.7,12,2.7z"/>
</svg>
