<?xml version="1.0" encoding="utf-8"?>
<!-- Generator: Adobe Illustrator 20.0.0, SVG Export Plug-In . SVG Version: 6.00 Build 0)  -->
<svg version="1.2" baseProfile="tiny" id="Layer_1" xmlns="http://www.w3.org/2000/svg" xmlns:xlink="http://www.w3.org/1999/xlink"
	 x="0px" y="0px" viewBox="0 0 24 24" xml:space="preserve">
<g>
	<path fill="#FFFFFF" d="M6.3,14c0.1,0.1,0.2,0.2,0.3,0.2c0.1,0.1,0.3,0.1,0.5,0.1c0.2,0,0.3,0,0.5-0.1c0.1-0.1,0.2-0.2,0.3-0.3
		C7.9,14,8,14.1,8.1,14.2c0.1,0.1,0.3,0.1,0.5,0.1c0.2,0,0.3,0,0.5-0.1C9.2,14.1,9.3,14,9.3,14c0.1-0.1,0.1-0.2,0.2-0.3
		c0-0.1,0-0.3,0-0.4v-1.3c0-0.1,0-0.1-0.1-0.2c-0.1,0-0.1-0.1-0.2-0.1c-0.1,0-0.2,0-0.2,0.1C9,11.8,9,11.8,9,11.9v1.3
		c0,0.2,0,0.3-0.1,0.4c-0.1,0.1-0.2,0.1-0.3,0.1c-0.1,0-0.3,0-0.3-0.1c-0.1-0.1-0.1-0.2-0.1-0.4v-1.3c0-0.1,0-0.1-0.1-0.2
		c-0.1,0-0.1-0.1-0.2-0.1c0,0-0.1,0-0.1,0c0,0-0.1,0-0.1,0c0,0-0.1,0-0.1,0.1c0,0,0,0.1,0,0.1v1.3c0,0.2,0,0.3-0.1,0.4
		c-0.1,0.1-0.2,0.1-0.3,0.1c-0.1,0-0.3,0-0.3-0.1c-0.1-0.1-0.1-0.2-0.1-0.4v-1.3c0-0.1,0-0.1-0.1-0.2c-0.1,0-0.1-0.1-0.2-0.1
		c-0.1,0-0.2,0-0.2,0.1c-0.1,0-0.1,0.1-0.1,0.2v1.3c0,0.2,0,0.3,0,0.4C6.2,13.7,6.2,13.9,6.3,14z"/>
	<path fill="#FFFFFF" d="M10.3,14c0.1,0.1,0.2,0.2,0.3,0.2c0.1,0.1,0.3,0.1,0.5,0.1c0.2,0,0.3,0,0.5-0.1c0.1-0.1,0.2-0.2,0.3-0.3
		c0.1,0.1,0.2,0.2,0.3,0.3c0.1,0.1,0.3,0.1,0.5,0.1c0.2,0,0.3,0,0.5-0.1c0.1-0.1,0.2-0.1,0.3-0.2c0.1-0.1,0.1-0.2,0.2-0.3
		c0-0.1,0-0.3,0-0.4v-1.3c0-0.1,0-0.1-0.1-0.2c-0.1,0-0.1-0.1-0.2-0.1c-0.1,0-0.2,0-0.2,0.1c-0.1,0-0.1,0.1-0.1,0.2v1.3
		c0,0.2,0,0.3-0.1,0.4c-0.1,0.1-0.2,0.1-0.3,0.1c-0.1,0-0.3,0-0.3-0.1c-0.1-0.1-0.1-0.2-0.1-0.4v-1.3c0-0.1,0-0.1-0.1-0.2
		c-0.1,0-0.1-0.1-0.2-0.1c0,0-0.1,0-0.1,0c0,0-0.1,0-0.1,0c0,0-0.1,0-0.1,0.1c0,0,0,0.1,0,0.1v1.3c0,0.2,0,0.3-0.1,0.4
		c-0.1,0.1-0.2,0.1-0.3,0.1c-0.1,0-0.3,0-0.3-0.1c-0.1-0.1-0.1-0.2-0.1-0.4v-1.3c0-0.1,0-0.1-0.1-0.2c-0.1,0-0.1-0.1-0.2-0.1
		c-0.1,0-0.2,0-0.2,0.1c-0.1,0-0.1,0.1-0.1,0.2v1.3c0,0.2,0,0.3,0,0.4C10.2,13.7,10.3,13.9,10.3,14z"/>
	<path fill="#FFFFFF" d="M14.3,14c0.1,0.1,0.2,0.2,0.3,0.2c0.1,0.1,0.3,0.1,0.5,0.1c0.2,0,0.3,0,0.5-0.1c0.1-0.1,0.2-0.2,0.3-0.3
		c0.1,0.1,0.2,0.2,0.3,0.3c0.1,0.1,0.3,0.1,0.5,0.1c0.2,0,0.3,0,0.5-0.1c0.1-0.1,0.2-0.1,0.3-0.2c0.1-0.1,0.1-0.2,0.2-0.3
		c0-0.1,0-0.3,0-0.4v-1.3c0-0.1,0-0.1-0.1-0.2c-0.1,0-0.1-0.1-0.2-0.1c-0.1,0-0.2,0-0.2,0.1c-0.1,0-0.1,0.1-0.1,0.2v1.3
		c0,0.2,0,0.3-0.1,0.4c-0.1,0.1-0.2,0.1-0.3,0.1c-0.1,0-0.3,0-0.3-0.1c-0.1-0.1-0.1-0.2-0.1-0.4v-1.3c0-0.1,0-0.1-0.1-0.2
		c-0.1,0-0.1-0.1-0.2-0.1c0,0-0.1,0-0.1,0c0,0-0.1,0-0.1,0c0,0-0.1,0-0.1,0.1c0,0,0,0.1,0,0.1v1.3c0,0.2,0,0.3-0.1,0.4
		c-0.1,0.1-0.2,0.1-0.3,0.1c-0.1,0-0.3,0-0.3-0.1c-0.1-0.1-0.1-0.2-0.1-0.4v-1.3c0-0.1,0-0.1-0.1-0.2c-0.1,0-0.1-0.1-0.2-0.1
		c-0.1,0-0.2,0-0.2,0.1c-0.1,0-0.1,0.1-0.1,0.2v1.3c0,0.2,0,0.3,0,0.4C14.2,13.7,14.3,13.9,14.3,14z"/>
	<path fill="#FFFFFF" d="M18.4,14.3c0.1,0,0.2,0,0.2-0.1c0.1,0,0.1-0.1,0.1-0.2v-0.1c0-0.1,0-0.1-0.1-0.2c-0.1,0-0.1-0.1-0.2-0.1
		c-0.1,0-0.2,0-0.2,0.1c-0.1,0-0.1,0.1-0.1,0.2V14c0,0.1,0,0.1,0.1,0.2C18.2,14.2,18.3,14.3,18.4,14.3z"/>
	<path fill="#FFFFFF" d="M20.9,3.7H3.1C2.8,3.7,2.5,4,2.5,4.3v15.3c0,0.4,0.3,0.7,0.7,0.7h17.7c0.4,0,0.7-0.3,0.7-0.7V4.3
		C21.5,4,21.2,3.7,20.9,3.7z M18.9,5c0.4,0,0.7,0.3,0.7,0.7c0,0.4-0.3,0.7-0.7,0.7c-0.4,0-0.7-0.3-0.7-0.7C18.2,5.3,18.5,5,18.9,5z
		 M3.8,5.3C3.8,5.1,3.9,5,4.1,5h12.2c0.1,0,0.3,0.1,0.3,0.3v0.7c0,0.1-0.1,0.3-0.3,0.3H4.1c-0.1,0-0.3-0.1-0.3-0.3V5.3z M20.2,19
		H3.8V7.6h16.4V19z"/>
</g>
</svg>
